<svg width="578" height="71" viewBox="0 0 578 71" fill="none" xmlns="http://www.w3.org/2000/svg">
<path d="M0.5 0.5H577.5V70.5H0.5V0.5Z" stroke="black"/>
<path d="M516.75 28.2917V46.0208C516.75 49.4611 519.539 52.25 522.979 52.25H545.021C548.461 52.25 551.25 49.4611 551.25 46.0208V28.2917H516.75ZM543.104 40.75C544.427 40.75 545.5 41.8226 545.5 43.1458C545.5 44.4691 544.427 45.5417 543.104 45.5417C541.781 45.5417 540.708 44.4691 540.708 43.1458C540.708 41.8226 541.781 40.75 543.104 40.75ZM534 40.75C535.323 40.75 536.396 41.8226 536.396 43.1458C536.396 44.4691 535.323 45.5417 534 45.5417C532.677 45.5417 531.604 44.4691 531.604 43.1458C531.604 41.8226 532.677 40.75 534 40.75ZM543.104 32.125C544.427 32.125 545.5 33.1976 545.5 34.5208C545.5 35.8441 544.427 36.9167 543.104 36.9167C541.781 36.9167 540.708 35.8441 540.708 34.5208C540.708 33.1976 541.781 32.125 543.104 32.125ZM534 32.125C535.323 32.125 536.396 33.1976 536.396 34.5208C536.396 35.8441 535.323 36.9167 534 36.9167C532.677 36.9167 531.604 35.8441 531.604 34.5208C531.604 33.1976 532.677 32.125 534 32.125ZM524.896 32.125C526.219 32.125 527.292 33.1976 527.292 34.5208C527.292 35.8441 526.219 36.9167 524.896 36.9167C523.573 36.9167 522.5 35.8441 522.5 34.5208C522.5 33.1976 523.573 32.125 524.896 32.125ZM522.979 17.75C519.539 17.75 516.75 20.5389 516.75 23.9792V25.4167H551.25V23.9792C551.25 20.5389 548.461 17.75 545.021 17.75H522.979Z" fill="#212121"/>
</svg>
