<svg width="34" height="34" viewBox="0 0 34 34" fill="none" xmlns="http://www.w3.org/2000/svg">
<path d="M11.0105 3.45589L12.5357 2.96854C13.9649 2.51188 15.4918 3.24989 16.1039 4.6931L17.3218 7.56518C17.8526 8.81674 17.5581 10.2885 16.5936 11.2039L13.9101 13.751C14.0756 15.2746 14.5878 16.7748 15.4464 18.2518C16.3052 19.7287 17.3776 20.9539 18.6638 21.9272L21.887 20.8524C23.1087 20.445 24.4393 20.9132 25.1887 22.0142L26.9345 24.5791C27.8057 25.8589 27.649 27.6247 26.568 28.7098L25.4096 29.8728C24.2565 31.0303 22.6097 31.4502 21.0862 30.9751C17.4894 29.8531 14.1825 26.5222 11.1653 20.9825C8.14372 15.4345 7.07732 10.7275 7.9661 6.86141C8.3401 5.23462 9.49824 3.93911 11.0105 3.45589Z" fill="#212121"/>
</svg>
