<svg width="578" height="71" viewBox="0 0 578 71" fill="none" xmlns="http://www.w3.org/2000/svg">
<rect x="0.5" y="0.5" width="577" height="70" stroke="black"/>
<path d="M538.919 27.2511C538.366 27.8043 537.469 27.8043 536.916 27.2511L528.001 18.3361L519.086 27.2511C518.533 27.8043 517.635 27.8043 517.082 27.2511C516.529 26.6978 516.529 25.8009 517.082 25.2476L526.999 15.331C527.552 14.7777 528.449 14.7777 529.002 15.331L538.919 25.2476C539.472 25.8009 539.472 26.6978 538.919 27.2511Z" fill="#212121"/>
<path d="M517.081 42.7489C517.634 42.1957 518.531 42.1957 519.084 42.7489L527.999 51.6639L536.914 42.7489C537.467 42.1957 538.365 42.1957 538.918 42.7489C539.471 43.3022 539.471 44.1991 538.918 44.7524L529.001 54.669C528.448 55.2223 527.551 55.2223 526.998 54.669L517.081 44.7524C516.528 44.1991 516.528 43.3022 517.081 42.7489Z" fill="#212121"/>
</svg>
