<svg width="397" height="44" viewBox="0 0 397 44" fill="none" xmlns="http://www.w3.org/2000/svg">
<path d="M41 2H0V42H21.9145V26.5311H16.5777V20.4756H21.9145V16.02C21.9145 10.8556 25.1512 8.04 29.8753 8.04C31.4675 8.03556 33.0574 8.11556 34.6404 8.27333V13.6733H31.3878C28.8139 13.6733 28.3128 14.86 28.3128 16.6111V20.4667H34.4628L33.6633 26.5222H28.2763V42H41V2Z" fill="black"/>
<path d="M290.5 0C278.627 0 269 9.8505 269 22C269 31.3207 274.667 39.281 282.665 42.4857C282.477 40.7458 282.307 38.0747 282.74 36.1753C283.131 34.4593 285.261 25.2395 285.261 25.2395C285.261 25.2395 284.618 23.9213 284.618 21.9743C284.618 18.9145 286.35 16.632 288.508 16.632C290.342 16.632 291.227 18.0418 291.227 19.7303C291.227 21.6187 290.054 24.4402 289.446 27.0545C288.939 29.2453 290.52 31.031 292.63 31.031C296.452 31.031 299.388 26.9078 299.388 20.9568C299.388 15.6897 295.69 12.0065 290.409 12.0065C284.292 12.0065 280.701 16.7017 280.701 21.5545C280.701 23.4447 281.413 25.4723 282.301 26.576C282.477 26.7942 282.502 26.9848 282.45 27.2067C282.287 27.9015 281.925 29.3957 281.853 29.7018C281.76 30.1052 281.542 30.1895 281.135 29.9952C278.449 28.7155 276.77 24.6987 276.77 21.472C276.77 14.5328 281.698 8.15833 290.977 8.15833C298.435 8.15833 304.231 13.596 304.231 20.8652C304.231 28.4478 299.559 34.5492 293.075 34.5492C290.896 34.5492 288.848 33.3905 288.148 32.0228C288.148 32.0228 287.069 36.223 286.807 37.2533C286.322 39.1637 285.012 41.5598 284.134 43.021C286.146 43.6553 288.284 44 290.5 44C302.373 44 312 34.1495 312 22C312 9.8505 302.373 0 290.5 0Z" fill="black"/>
<path d="M134.688 10.1875C134.254 7.71338 132.183 5.91162 129.781 5.34912C126.186 4.5625 119.533 4 112.334 4C105.139 4 98.3796 4.5625 94.7802 5.34912C92.3821 5.91162 90.3077 7.59912 89.8732 10.1875C89.4345 13 89 16.9375 89 22C89 27.0625 89.4345 31 89.9797 33.8125C90.4184 36.2866 92.4886 38.0884 94.8867 38.6509C98.7033 39.4375 105.246 40 112.445 40C119.643 40 126.186 39.4375 130.003 38.6509C132.401 38.0884 134.471 36.4009 134.91 33.8125C135.344 31 135.889 26.9482 136 22C135.779 16.9375 135.233 13 134.688 10.1875ZM106.447 29.875V14.125L119.75 22L106.447 29.875Z" fill="black"/>
<path d="M194.879 4C188.907 4 184 8.90092 184 14.8793V30.1207C184 36.0925 188.901 41 194.879 41H210.121C216.093 41 221 36.0991 221 30.1207V14.8793C221 8.90749 216.099 4 210.121 4H194.879ZM194.879 7.36364H210.121C214.279 7.36364 217.636 10.7207 217.636 14.8793V30.1207C217.636 34.2793 214.279 37.6364 210.121 37.6364H194.879C190.721 37.6364 187.364 34.2793 187.364 30.1207V14.8793C187.364 10.7207 190.721 7.36364 194.879 7.36364ZM212.433 11.0426C211.586 11.0426 210.909 11.7193 210.909 12.5668C210.909 13.4142 211.586 14.0909 212.433 14.0909C213.281 14.0909 213.957 13.4142 213.957 12.5668C213.957 11.7193 213.281 11.0426 212.433 11.0426ZM202.5 12.4091C196.949 12.4091 192.409 16.9487 192.409 22.5C192.409 28.0513 196.949 32.5909 202.5 32.5909C208.051 32.5909 212.591 28.0513 212.591 22.5C212.591 16.9487 208.051 12.4091 202.5 12.4091ZM202.5 15.7727C206.238 15.7727 209.227 18.7619 209.227 22.5C209.227 26.2381 206.238 29.2273 202.5 29.2273C198.762 29.2273 195.773 26.2381 195.773 22.5C195.773 18.7619 198.762 15.7727 202.5 15.7727Z" fill="black"/>
<path d="M378.878 19.2415V26.3104H389.152C387.811 30.5937 384.159 33.6618 378.878 33.6618C372.592 33.6618 367.492 28.6623 367.492 22.5C367.492 16.3377 372.585 11.3382 378.878 11.3382C381.706 11.3382 384.286 12.3565 386.277 14.0318L391.584 8.82209C388.234 5.82635 383.77 4 378.878 4C368.451 4 360 12.2843 360 22.5C360 32.7157 368.451 41 378.878 41C394.721 41 398.219 26.4746 396.664 19.2678L378.878 19.2415Z" fill="black"/>
</svg>
