<svg width="190" height="44" viewBox="0 0 190 44" fill="none" xmlns="http://www.w3.org/2000/svg">
<path d="M20.1501 5.9273C20.1501 5.70173 16.4817 6.44161 16.1614 6.54988C12.3086 7.78605 9.49879 10.7172 8.78335 14.2464C8.34044 16.7663 8.98886 19.3398 10.602 21.4647C12.2657 23.7295 14.8077 25.0739 17.3704 26.4454C18.5277 27.0589 19.7057 27.6184 20.9044 28.1507C22.4471 28.755 23.7931 29.6853 24.8208 30.8576C25.9567 32.3563 26.0637 34.2773 25.0998 35.8653C24.0849 37.4304 22.1992 38.4114 20.1398 38.4458L20.1397 43.5979C22.9183 43.5889 25.6014 42.7119 27.7038 41.1256C31.8371 38.0127 33.0048 32.0035 29.7705 28.0605C28.12 26.2095 26.0519 24.674 23.6944 23.549C21.3178 22.3129 18.7447 21.3926 16.6471 19.7865C15.7528 19.1422 15.0834 18.292 14.7147 17.3322C14.2571 15.7945 14.7022 14.1588 15.9031 12.9652C16.4303 12.4117 17.0807 11.9575 17.8147 11.6298C17.9904 11.5576 20.1604 10.9621 20.1604 11.1425L20.1501 5.9273Z" fill="#0091F2"/>
<rect y="5.88281" width="5.08403" height="15.7811" fill="#0143AE"/>
<path d="M31.052 5.89258V17.884H39.701V21.6646H25.9473V5.89258H31.052Z" fill="#0143AE"/>
<path d="M56.3998 21.6646H41.9434V5.89258H56.0381V9.62806H46.9861V11.8838H55.5214V15.511H46.9861V17.9021H56.3998V21.6646Z" fill="#0143AE"/>
<path d="M70.4218 10.2595C69.1882 9.49464 67.6963 9.11337 66.1851 9.17673C64.9451 9.17673 63.7361 9.5196 63.7361 10.3497C63.7361 11.4325 64.9451 11.5949 66.7328 11.7483C70.3185 12.0821 74.0592 13.3453 74.0592 16.9815C74.0592 20.6178 70.1841 22.0975 66.1334 22.1156C62.8784 22.1156 60.5638 21.6464 58.0527 19.3455L60.8737 16.5304C62.2818 17.7367 64.1929 18.3885 66.1644 18.335C67.8385 18.335 69.0061 17.8207 69.0061 16.9364C69.0061 16.0522 67.9728 15.6552 65.9784 15.4928C62.0311 15.177 58.6211 14.3017 58.6211 10.3768C58.6211 7.03831 62.3618 5.60367 66.1851 5.60367C68.6202 5.49403 71.0203 6.14672 72.9535 7.44434L70.4218 10.2595Z" fill="#0143AE"/>
<path d="M96.627 16.4575V15.2394H98.456V12.0814H89.5487C89.0013 12.1212 88.4593 11.9632 88.0491 11.6443C87.6389 11.3253 87.3966 10.8734 87.3786 10.3941C87.3787 8.4542 91.9977 8.31886 92.0493 10.3941H96.6994C96.6994 6.78497 93.341 5.54883 89.7037 5.54883C86.5003 5.54883 82.1913 6.63158 82.1913 10.4392C82.1719 11.7158 82.9263 12.9064 84.1753 13.5702C82.694 14.2636 81.7143 15.5637 81.5713 17.026C81.5713 20.8336 85.033 21.8713 88.4843 21.8713C90.5593 21.9842 92.5869 21.2984 94.0333 19.9945C94.8807 21.8713 96.9164 21.9615 98.549 21.6908V17.7929C98.079 17.9137 97.5711 17.8276 97.1869 17.5621C96.8027 17.2966 96.5901 16.8847 96.6167 16.4575M92.0183 16.3673C92.0183 17.6305 90.5923 18.3343 89.094 18.3343C87.8023 18.3343 86.5933 17.9012 86.5933 16.8184C86.5933 15.5552 88.0916 15.3116 89.249 15.3116H92.0183V16.3673Z" fill="#0143AE"/>
<path d="M63.1366 43.5454H58.1559L50.6436 27.7012H56.2959L58.3626 32.4382L60.6359 38.276L62.93 32.4382L64.9966 27.7012H70.649L63.1366 43.5454Z" fill="#0143AE"/>
<path d="M39.5358 27.7012H44.5268L52.0289 43.5454H46.3765L44.3098 38.8174L42.0468 32.9796L39.7425 38.8174L37.6861 43.5454H32.0234L39.5358 27.7012Z" fill="#0143AE"/>
<path d="M76.6842 27.7012H81.6649L89.1773 43.5454H83.5249L81.4583 38.8174L79.1849 32.9796L76.8909 38.8174L74.8242 43.5454H69.1719L76.6842 27.7012Z" fill="#0143AE"/>
<path d="M138.508 27.7012H143.489L151.002 43.5454H145.349L143.283 38.8174L141.009 32.9796L138.715 38.8174L136.648 43.5454H130.996L138.508 27.7012Z" fill="#0143AE"/>
<path d="M103.335 36.3361C103.2 34.4413 103.2 33.7194 103.18 33.1149V27.7012H108.346V43.4822H104.006L96.4733 34.9826L96.5456 38.4294V43.4822H91.3789V27.7012H95.7086L103.335 36.3361Z" fill="#0143AE"/>
<path d="M123.908 36.3361C123.774 34.4413 123.774 33.7194 123.753 33.1149V27.7012H128.92V43.4822H124.58L117.047 34.9826L117.119 38.4294V43.4822H111.952V27.7012H116.282L123.908 36.3361Z" fill="#0143AE"/>
<path d="M185.34 9.14027L186.497 8.62597C186.497 8.4816 186.497 8.33723 186.497 8.19287L179.801 7.40787C180.339 5.75668 178.262 5.91909 177.352 4.98071L180.297 4.79123C180.297 4.59273 180.359 4.40325 180.401 4.21377C179.061 3.79324 177.676 3.49096 176.267 3.31148C174.164 3.26208 172.059 3.32536 169.964 3.50096C168.931 3.55509 168.311 3.30245 168.125 2.21971L169.592 1.85879L171.018 1.4708C170.268 0.238462 168.585 -0.314426 167.091 0.18053C164.78 0.772975 162.36 0.978095 159.961 0.785066C158.372 0.676832 156.776 0.676829 155.187 0.785066C153.947 0.848225 152.707 1.02868 152.397 2.1385C148.832 2.1385 145.401 2.1385 141.971 2.1385C141.201 2.13885 140.435 2.23609 139.697 2.42723C138.649 2.64362 137.87 3.41373 137.755 4.34911L139.883 4.61077C139.883 4.88146 139.883 4.79123 139.883 5.06192L136.308 5.35065C134.339 5.43832 132.377 5.61299 130.428 5.87398C129.033 6.12662 128.362 7.08305 128.827 8.77033C126.998 9.14929 125.313 9.47412 123.66 9.84406C122.72 10.0426 121.19 9.84406 121.283 11.0351C121.376 12.2261 122.875 12.0096 123.908 12.0637C125.138 12.1269 126.223 12.2532 126.791 13.4532C127.112 13.7975 127.608 13.98 128.114 13.9405C128.655 13.811 129.15 13.5624 129.55 13.2186C131.534 11.7569 133.869 11.4682 136.339 11.4952C138.809 11.5223 140.999 11.7659 142.777 13.6247C144.781 15.736 147.137 17.5767 149.318 19.5617C149.682 19.8821 149.964 20.2666 150.144 20.6896V20.7618C152.019 25.4463 152.983 30.3716 152.996 35.3337L152.997 43.4544H158.163V37.7609C158.163 36.2111 159.602 34.9548 161.377 34.9548C163.152 34.9548 164.591 36.2111 164.591 37.7609V43.4995H169.757V37.3278C169.76 35.4956 168.928 33.7376 167.446 32.4412C165.963 31.1447 163.951 30.4163 161.852 30.4163H158.143C158.142 30.1137 158.111 29.8118 158.05 29.514C157.773 27.9004 157.092 26.3601 156.055 25.0025C154.95 23.613 155.28 22.6927 156.655 21.8535C156.878 21.7171 157.109 21.5906 157.347 21.4746C159.131 20.7157 160.71 19.6329 161.976 18.2985C163.522 16.1532 166.32 14.9522 169.21 15.1946C173.539 15.3661 177.166 13.7871 180.68 11.8381C181.266 11.5389 181.951 11.4243 182.622 11.5133C183.771 11.7357 184.897 12.0375 185.991 12.4156C187.768 12.957 188.574 11.5133 189.918 11.1253C189.918 10.99 189.918 10.8546 190 10.7103L185.288 9.1132M157.306 5.17922L159.517 5.3687C159.517 6.09955 159.238 6.92064 159.589 7.26351C159.941 7.60638 160.984 7.83195 161.976 8.1658C160.943 8.42746 160.199 8.63499 159.445 8.7974C158.69 8.95981 157.884 9.10418 156.851 9.3117C157.016 7.82293 157.161 6.53265 157.306 5.17019M155.88 6.13564C155.714 7.11914 155.549 8.13873 155.373 9.15831C152.716 8.94048 150.413 7.46305 149.38 5.31456L155.88 6.13564ZM154.919 13.0291L153.472 15.736C153.234 14.6172 153.069 13.8592 152.903 13.0291H154.919ZM135.895 8.94177L135.636 8.40039L137.248 6.9838C137.755 7.88609 138.023 8.31919 138.375 8.94176L135.895 8.94177ZM140.431 8.46355C139.346 8.60792 138.943 8.38235 138.643 7.48006C141.743 6.92966 145.226 8.22896 147.943 5.67548C148.305 6.17174 148.677 6.69506 148.977 7.16425C147.757 7.70563 146.672 8.21091 145.556 8.67108C145.37 8.75228 145.081 8.62596 144.843 8.61694C143.361 8.4448 141.862 8.40248 140.369 8.49062M149.969 18.7677C148.739 17.4594 147.778 16.3676 146.724 15.339C145.971 14.6421 145.17 13.9853 144.327 13.372C143.851 13.0201 143.293 12.7404 142.797 12.4697L143.076 12.1088C143.836 12.6257 144.657 13.0703 145.525 13.4352C146.479 13.7334 147.489 13.8682 148.501 13.8322C149.577 13.7032 150.635 13.4857 151.663 13.1825C152.697 15.2849 151.271 16.7466 149.969 18.8128M156.799 20.076C155.616 20.316 154.595 20.9637 153.968 21.8716C153.674 22.4186 153.533 23.0183 153.555 23.622C153.369 23.3874 153.193 23.1619 153.038 22.9363C150.971 20.058 151.281 18.4248 153.885 16.0608C154.605 15.3228 155.274 14.5485 155.89 13.742L156.159 13.8683C156.727 13.4803 157.275 13.0652 157.864 12.7043C158.167 12.4952 158.52 12.3473 158.897 12.2712C159.827 12.1539 160.778 12.1178 161.997 12.0276C160.964 14.2472 160.085 16.2864 158.98 18.2173C158.531 19.0286 157.759 19.6699 156.81 20.0219M170.636 14.3194C169.402 14.363 168.167 14.348 166.936 14.2743C164.992 14.0346 163.095 14.9216 162.245 16.4669C162.015 16.79 161.748 17.0922 161.449 17.3692L161.057 17.2067C161.677 15.5465 162.307 13.8863 162.979 12.0998C165.492 13.117 168.365 13.2208 170.966 12.3885C171.555 12.2081 172.403 11.8652 172.496 11.4862C172.589 11.1073 171.969 10.5118 171.545 10.0967C171.125 9.71429 170.669 9.36412 170.181 9.05004C171.276 8.43648 174.066 8.14775 174.314 8.75228C174.531 9.60465 174.608 10.4797 174.542 11.3509H179.026C176.667 13.0672 173.75 14.093 170.687 14.2833" fill="#F78F1F"/>
<path d="M73.7494 23.2422V25.2904L72.0961 26.1024C71.0846 26.5957 69.8525 26.5957 68.8411 26.1024L67.0327 25.2002C66.6477 25.0237 66.188 25.0237 65.803 25.2002L63.912 26.0483C62.9661 26.4635 61.851 26.4635 60.905 26.0483L59.0967 25.2904V23.3324L61.804 24.5054C62.1746 24.6679 62.6114 24.6679 62.982 24.5054L64.873 23.6572C65.8433 23.2112 67.0028 23.2112 67.9731 23.6572L69.7917 24.5595C70.1898 24.754 70.675 24.754 71.0731 24.5595L73.7494 23.2422Z" fill="#0143AE"/>
</svg>
