<svg width="231" height="53" viewBox="0 0 231 53" fill="none" xmlns="http://www.w3.org/2000/svg">
<path d="M24.4956 7.206C24.4956 6.93179 20.0362 7.83121 19.6468 7.96283C14.9633 9.46555 11.5476 13.0287 10.6779 17.3189C10.1395 20.3822 10.9277 23.5107 12.8887 26.0937C14.9111 28.8468 18.0013 30.4811 21.1165 32.1483C22.5234 32.8942 23.9555 33.5742 25.4126 34.2214C27.2879 34.9559 28.9241 36.0868 30.1734 37.5119C31.5543 39.3339 31.6844 41.6691 30.5126 43.5994C29.2788 45.502 26.9865 46.6946 24.483 46.7364L24.483 52.9994C27.8607 52.9884 31.1224 51.9224 33.6781 49.9941C38.7027 46.2099 40.1222 38.9049 36.1904 34.1117C34.184 31.8616 31.6701 29.995 28.8042 28.6275C25.9151 27.1248 22.7872 26.006 20.2372 24.0536C19.1502 23.2704 18.3364 22.2368 17.8882 21.0702C17.3319 19.2009 17.873 17.2124 19.3328 15.7614C19.9738 15.0887 20.7643 14.5364 21.6567 14.1381C21.8702 14.0503 24.5082 13.3264 24.5082 13.5458L24.4956 7.206Z" fill="#0091F2"/>
<rect y="7.15039" width="6.18028" height="19.1839" fill="#0143AE"/>
<path d="M37.7484 7.16211V21.7392H48.2624V26.335H31.543V7.16211H37.7484Z" fill="#0143AE"/>
<path d="M68.5609 26.335H50.9873V7.16211H68.1213V11.7031H57.1173V14.4452H67.4932V18.8545H57.1173V21.7612H68.5609V26.335Z" fill="#0143AE"/>
<path d="M85.6065 12.471C84.1069 11.5413 82.2933 11.0778 80.4563 11.1548C78.9489 11.1548 77.4792 11.5716 77.4792 12.5807C77.4792 13.8969 78.9489 14.0944 81.122 14.2808C85.4809 14.6867 90.0282 16.2223 90.0282 20.6426C90.0282 25.0629 85.3176 26.8617 80.3934 26.8836C76.4366 26.8836 73.6228 26.3133 70.5703 23.5163L73.9996 20.0941C75.7112 21.5605 78.0344 22.3529 80.4311 22.2878C82.4661 22.2878 83.8856 21.6626 83.8856 20.5877C83.8856 19.5128 82.6294 19.0302 80.205 18.8328C75.4065 18.4489 71.2612 17.3849 71.2612 12.6136C71.2612 8.55529 75.8085 6.8113 80.4563 6.8113C83.4165 6.67803 86.334 7.47146 88.6841 9.04887L85.6065 12.471Z" fill="#0143AE"/>
<path d="M117.463 20.007V18.5263H119.687V14.6873H108.859C108.193 14.7357 107.534 14.5436 107.036 14.1559C106.537 13.7682 106.242 13.2188 106.221 12.6362C106.221 10.2779 111.836 10.1134 111.899 12.6362H117.551C117.551 8.24878 113.469 6.74609 109.047 6.74609C105.153 6.74609 99.9148 8.06231 99.9148 12.691C99.8912 14.2429 100.808 15.6902 102.327 16.4971C100.526 17.34 99.335 18.9204 99.1611 20.698C99.1611 25.3267 103.369 26.5881 107.565 26.5881C110.087 26.7254 112.552 25.8918 114.31 24.3066C115.34 26.5881 117.815 26.6978 119.8 26.3687V21.6303C119.228 21.7772 118.611 21.6725 118.144 21.3498C117.677 21.027 117.418 20.5263 117.451 20.007M111.861 19.8973C111.861 21.4329 110.127 22.2884 108.306 22.2884C106.736 22.2884 105.266 21.762 105.266 20.4457C105.266 18.9101 107.087 18.614 108.494 18.614H111.861V19.8973Z" fill="#0143AE"/>
<path d="M76.7504 52.9345H70.6957L61.5635 33.6738H68.4346L70.947 39.4323L73.7105 46.5289L76.4992 39.4323L79.0115 33.6738H85.8826L76.7504 52.9345Z" fill="#0143AE"/>
<path d="M48.061 33.6738H54.1282L63.2479 52.9345H56.3767L53.8644 47.187L51.1134 40.0904L48.3122 47.187L45.8124 52.9345H38.9287L48.061 33.6738Z" fill="#0143AE"/>
<path d="M93.2192 33.6738H99.2738L108.406 52.9345H101.535L99.0226 47.187L96.259 40.0904L93.4704 47.187L90.9581 52.9345H84.0869L93.2192 33.6738Z" fill="#0143AE"/>
<path d="M168.374 33.6738H174.429L183.561 52.9345H176.69L174.178 47.187L171.414 40.0904L168.626 47.187L166.113 52.9345H159.242L168.374 33.6738Z" fill="#0143AE"/>
<path d="M125.617 44.1707C125.453 41.8673 125.453 40.9898 125.428 40.2549V33.6738H131.709V52.8577H126.433L117.276 42.5254L117.364 46.7154V52.8577H111.083V33.6738H116.346L125.617 44.1707Z" fill="#0143AE"/>
<path d="M150.626 44.1707C150.462 41.8673 150.462 40.9898 150.437 40.2549V33.6738H156.718V52.8577H151.442L142.285 42.5254L142.373 46.7154V52.8577H136.092V33.6738H141.355L150.626 44.1707Z" fill="#0143AE"/>
<path d="M225.304 11.1112L226.711 10.486C226.711 10.3105 226.711 10.135 226.711 9.95947L218.571 9.00521C219.224 6.99798 216.699 7.19541 215.594 6.05469L219.174 5.82435C219.174 5.58305 219.249 5.35271 219.299 5.12237C217.671 4.61116 215.987 4.24371 214.275 4.02552C211.717 3.96548 209.158 4.0424 206.612 4.25586C205.356 4.32167 204.602 4.01455 204.376 2.69834L206.16 2.2596L207.893 1.78795C206.982 0.289881 204.936 -0.382225 203.12 0.219458C200.31 0.939649 197.369 1.189 194.453 0.954348C192.521 0.822775 190.581 0.822771 188.649 0.954348C187.142 1.03113 185.634 1.2505 185.257 2.59962C180.924 2.59962 176.753 2.59962 172.583 2.59962C171.647 2.60004 170.716 2.71825 169.819 2.95061C168.545 3.21366 167.598 4.14982 167.458 5.2869L170.045 5.60498C170.045 5.93404 170.045 5.82435 170.045 6.15341L165.699 6.5044C163.306 6.61097 160.92 6.82331 158.552 7.14057C156.856 7.44769 156.039 8.61035 156.605 10.6615C154.381 11.1221 152.334 11.517 150.324 11.9667C149.181 12.208 147.322 11.9667 147.435 13.4145C147.548 14.8624 149.369 14.5991 150.625 14.665C152.12 14.7417 153.439 14.8953 154.13 16.3541C154.52 16.7726 155.122 16.9945 155.738 16.9464C156.396 16.789 156.997 16.4869 157.484 16.0689C159.896 14.292 162.735 13.941 165.737 13.9739C168.739 14.0068 171.402 14.303 173.563 16.5625C176 19.1291 178.864 21.3667 181.514 23.7798C181.957 24.1692 182.299 24.6366 182.519 25.1508V25.2386C184.797 30.9332 185.969 36.9205 185.986 42.9527L185.986 52.8243H192.267V45.9032C192.267 44.0192 194.016 42.492 196.173 42.492C198.331 42.492 200.08 44.0192 200.08 45.9032V52.8792H206.361V45.3767C206.364 43.1494 205.353 41.0123 203.551 39.4364C201.748 37.8604 199.302 36.9749 196.751 36.9749H192.242C192.241 36.6071 192.203 36.24 192.129 35.878C191.792 33.9165 190.964 32.044 189.704 30.3938C188.36 28.7046 188.762 27.5858 190.433 26.5658C190.704 26.3999 190.985 26.2462 191.274 26.1051C193.444 25.1826 195.362 23.8663 196.902 22.2442C198.781 19.6363 202.183 18.1763 205.695 18.471C210.958 18.6794 215.367 16.7599 219.638 14.3907C220.351 14.027 221.184 13.8876 222 13.9959C223.396 14.2663 224.765 14.6331 226.095 15.0927C228.256 15.7508 229.235 13.9959 230.868 13.5242C230.868 13.3597 230.868 13.1952 230.969 13.0197L225.241 11.0783M191.224 6.296L193.912 6.52634C193.912 7.41478 193.573 8.41292 194 8.82972C194.427 9.24652 195.696 9.52073 196.902 9.92657C195.646 10.2447 194.741 10.4969 193.824 10.6944C192.907 10.8918 191.928 11.0673 190.671 11.3196C190.872 9.50976 191.048 7.94127 191.224 6.28503M189.491 7.45866C189.29 8.65422 189.089 9.89366 188.875 11.1331C185.645 10.8683 182.845 9.07229 181.589 6.46052L189.491 7.45866ZM188.322 15.8386L186.564 19.1291C186.275 17.769 186.074 16.8477 185.873 15.8386H188.322ZM165.197 10.8699L164.883 10.2117L166.842 8.48969C167.458 9.58654 167.784 10.113 168.211 10.8699L165.197 10.8699ZM170.711 10.2885C169.392 10.464 168.902 10.1898 168.538 9.09296C172.306 8.42388 176.54 10.0033 179.843 6.89927C180.283 7.50253 180.735 8.1387 181.1 8.70906C179.617 9.36717 178.298 9.98141 176.942 10.5408C176.716 10.6395 176.364 10.486 176.075 10.475C174.272 10.2657 172.45 10.2143 170.636 10.3214M182.305 22.8145C180.811 21.2241 179.642 19.8969 178.361 18.6465C177.445 17.7993 176.472 17.0009 175.447 16.2554C174.869 15.8276 174.191 15.4876 173.588 15.1585L173.927 14.7198C174.851 15.3482 175.849 15.8887 176.904 16.3322C178.063 16.6947 179.291 16.8586 180.522 16.8148C181.829 16.658 183.116 16.3936 184.366 16.025C185.622 18.5807 183.888 20.3576 182.305 22.8694M190.609 24.405C189.171 24.6967 187.929 25.484 187.167 26.5877C186.81 27.2527 186.638 27.9817 186.664 28.7156C186.438 28.4304 186.225 28.1562 186.036 27.882C183.524 24.383 183.901 22.3977 187.066 19.524C187.941 18.6268 188.755 17.6856 189.503 16.7051L189.83 16.8587C190.521 16.387 191.186 15.8825 191.902 15.4437C192.272 15.1896 192.701 15.0098 193.159 14.9172C194.289 14.7746 195.445 14.7308 196.927 14.6211C195.671 17.3193 194.603 19.7982 193.259 22.1455C192.713 23.1317 191.776 23.9112 190.621 24.3392M207.429 17.4071C205.93 17.4601 204.428 17.4418 202.932 17.3522C200.569 17.0609 198.262 18.1391 197.229 20.0176C196.949 20.4103 196.625 20.7778 196.261 21.1144L195.784 20.917C196.538 18.8988 197.304 16.8806 198.12 14.7088C201.176 15.9453 204.669 16.0716 207.831 15.0598C208.547 14.8405 209.577 14.4236 209.69 13.963C209.803 13.5023 209.049 12.7784 208.534 12.2738C208.024 11.809 207.469 11.3833 206.876 11.0015C208.207 10.2556 211.599 9.90463 211.9 10.6395C212.164 11.6757 212.257 12.7394 212.177 13.7984H217.629C214.761 15.8848 211.215 17.1318 207.491 17.3632" fill="#F78F1F"/>
<path d="M89.6521 28.2559V30.7457L87.6423 31.7329C86.4127 32.3325 84.915 32.3325 83.6854 31.7329L81.4871 30.636C81.0191 30.4215 80.4603 30.4215 79.9923 30.636L77.6935 31.6671C76.5436 32.1717 75.1881 32.1717 74.0381 31.6671L71.8398 30.7457V28.3655L75.131 29.7914C75.5815 29.989 76.1125 29.989 76.563 29.7914L78.8618 28.7604C80.0412 28.2182 81.4508 28.2182 82.6302 28.7604L84.841 29.8573C85.325 30.0936 85.9147 30.0936 86.3987 29.8573L89.6521 28.2559Z" fill="#0143AE"/>
</svg>
